<svg width="32" height="32" viewBox="0 0 32 32" fill="none" xmlns="http://www.w3.org/2000/svg">
<path d="M7.36672 28.0001C6.76672 28.0001 6.23339 27.8165 5.76672 27.4494C5.30005 27.0823 4.97783 26.6103 4.80005 26.0334L1.40005 13.7001C1.28894 13.2779 1.36139 12.889 1.61739 12.5334C1.87339 12.1779 2.22316 12.0001 2.66672 12.0001H9.00005L14.8667 3.26675C14.9778 3.08897 15.1334 2.94453 15.3334 2.83341C15.5334 2.7223 15.7445 2.66675 15.9667 2.66675C16.1889 2.66675 16.4001 2.7223 16.6001 2.83341C16.8001 2.94453 16.9556 3.08897 17.0667 3.26675L22.9334 12.0001H29.3334C29.7778 12.0001 30.1281 12.1779 30.3841 12.5334C30.6401 12.889 30.7121 13.2779 30.6001 13.7001L27.2001 26.0334C27.0223 26.6112 26.7001 27.0836 26.2334 27.4507C25.7667 27.8179 25.2334 28.001 24.6334 28.0001H7.36672ZM16.0001 22.6667C16.7334 22.6667 17.3614 22.4059 17.8841 21.8841C18.4067 21.3623 18.6676 20.7343 18.6667 20.0001C18.6658 19.2659 18.4049 18.6383 17.8841 18.1174C17.3632 17.5965 16.7352 17.3352 16.0001 17.3334C15.2649 17.3316 14.6374 17.593 14.1174 18.1174C13.5974 18.6419 13.3361 19.2694 13.3334 20.0001C13.3307 20.7307 13.5921 21.3587 14.1174 21.8841C14.6427 22.4094 15.2703 22.6703 16.0001 22.6667ZM12.2334 12.0001H19.7334L15.9667 6.40008L12.2334 12.0001Z" fill="#54995C"/>
</svg>
