<svg width="330" height="104" viewBox="0 0 330 104" fill="none" xmlns="http://www.w3.org/2000/svg">
<g clip-path="url(#clip0_249_302)">
<path fill-rule="evenodd" clip-rule="evenodd" d="M49.0891 37.6452C49.0891 39.052 48.5151 39.8226 47.3661 39.9587C45.9041 40.0949 42.4451 40.6735 36.9901 41.6936C31.5341 42.7147 27.5261 43.5193 24.9681 44.1093C24.9681 45.1077 24.9811 47.2056 25.0081 50.4032C25.0331 53.6016 25.0991 56.3122 25.2031 58.5341C25.2551 59.3963 25.3731 60.3493 25.5561 61.3922C25.7381 62.436 25.8561 63.1838 25.9081 63.6376C26.2211 65.2704 26.3781 66.2461 26.3781 66.5638C26.3781 67.063 26.1041 67.7995 25.5561 68.7752C25.0081 69.75 24.5501 70.2378 24.1851 70.2378C23.8201 70.2378 23.4801 70.079 23.1671 69.7613C22.8541 69.4446 22.6451 69.0589 22.5401 68.605C22.0181 66.5638 21.6531 63.2519 21.4441 58.6712C21.1831 53.0911 21.0521 48.7363 21.0521 45.6059C20.7391 45.6513 20.2301 45.7307 19.5251 45.8442C18.8201 45.9576 18.2071 46.0371 17.6851 46.0824C17.1631 46.0824 16.6151 45.969 16.0401 45.743C15.4661 45.5161 15.1791 45.2438 15.1791 44.9261C15.1791 44.5631 15.3221 44.2908 15.6101 44.1093C15.8971 43.9277 16.2231 43.7803 16.5881 43.6668C16.9541 43.5533 17.2151 43.4739 17.3721 43.4285C19.2511 42.7488 20.5041 42.3176 21.1311 42.1361L20.5041 26.9625C16.6411 27.5071 13.7951 27.7794 11.9681 27.7794C9.93209 27.7794 8.52209 27.3482 7.73909 26.486C7.00809 25.6247 6.64209 24.8305 6.64209 24.1044C6.64209 23.6969 6.98209 23.4927 7.66009 23.4927C7.76509 23.4927 8.37909 23.6506 9.50109 23.9683C10.6231 24.2859 11.6021 24.4448 12.4381 24.4448C14.1091 24.4448 16.7711 24.2179 20.4261 23.765C20.4261 23.6742 20.4521 23.3225 20.5041 22.7099C20.5561 22.0972 20.7911 21.5422 21.2091 21.043C21.4701 20.6346 21.7051 20.3623 21.9141 20.2261C22.1231 20.09 22.3581 20.0219 22.6191 20.0219C23.6111 20.0219 24.1071 20.9749 24.1071 22.88C24.8381 22.7439 26.4961 22.4716 29.0801 22.0632C31.6641 21.6547 34.6271 21.2699 37.9681 20.9069C41.3101 20.5438 44.2081 20.3623 46.6621 20.3623C48.6451 20.3623 49.6381 20.7027 49.6381 21.3834C49.6381 21.927 49.4161 22.6304 48.9721 23.4927C48.5281 24.354 48.0191 24.7851 47.4451 24.7851C47.2361 24.7851 47.0271 24.683 46.8181 24.4788C46.6091 24.2746 46.4531 24.1498 46.3481 24.1044C45.8781 23.9238 45.1991 23.833 44.3121 23.833C42.6941 23.833 39.4701 24.1271 34.6401 24.7171C29.8111 25.307 26.3261 25.8062 24.1851 26.2147L24.7331 40.9798C27.5531 40.3445 31.8861 39.4822 37.7341 38.394C43.5811 37.3048 47.0011 36.7612 47.9931 36.7612C48.4111 36.7612 48.6981 36.8179 48.8541 36.9304C49.0111 37.0448 49.0891 37.2821 49.0891 37.6452ZM287.638 32.2022C287.638 32.8366 287.286 33.506 286.581 34.2094C285.876 34.9119 285.21 35.2636 284.584 35.2636C284.166 35.2636 283.696 35.0707 283.174 34.6859C282.652 34.3002 282.286 34.1073 282.078 34.1073C280.668 34.1073 278.423 34.9459 275.343 36.6251C272.262 38.3032 269.103 40.2764 265.866 42.5445C262.629 44.8127 260.149 46.7405 258.426 48.3279L258.505 49.5532C262.473 51.1406 266.884 52.8415 271.74 54.6558C276.595 56.4711 279.959 57.5593 281.842 57.8543C282.569 57.9677 320.889 69.785 321.619 69.8294C322.35 69.8748 322.872 69.8975 323.186 69.8975C323.403 69.8975 324.739 69.3917 326.142 68.8537C327.772 68.2278 320.183 65.1135 320.35 65.1371C320.662 65.1816 324.831 70.1017 324.831 70.2378C324.831 70.7824 324.347 71.327 323.382 71.8707C322.416 72.4152 320.967 72.6875 319.035 72.6875C317.312 72.6875 277.391 60.3597 274.442 59.2488C271.492 58.1379 268.007 56.6744 263.987 54.86L259.053 52.7507C259.731 58.5123 260.071 61.6872 260.071 62.2771C260.071 62.7763 259.784 63.1838 259.209 63.5015C258.635 63.8192 258.009 63.978 257.33 63.978C256.912 63.978 256.573 63.4334 256.312 62.3452C256.051 61.256 255.737 59.1013 255.372 55.8811L254.824 51.7306C254.197 51.5037 253.649 51.1747 253.179 50.7435C252.709 50.3124 252.474 49.9163 252.474 49.5532C252.474 49.0086 252.996 48.3733 254.041 47.6481C253.989 45.1984 253.845 41.705 253.61 37.1687C253.375 32.6324 253.205 29.3214 253.101 27.2348L252.709 17.7765C252.709 16.5067 252.892 15.4176 253.258 14.5109C253.623 13.6032 254.432 13.1494 255.685 13.1494C256.155 13.1494 256.468 13.2288 256.625 13.3877C256.782 13.5465 256.86 13.8528 256.86 14.3067C256.86 16.3933 257.03 21.2359 257.369 28.8336C257.708 36.4322 257.983 41.8411 258.191 45.0623C269.834 35.4451 278.344 30.6365 283.722 30.6365C284.818 30.6365 285.745 30.8067 286.502 31.1471C287.259 31.4874 287.638 31.8392 287.638 32.2022Z" fill="#54995C"/>
<path d="M64.116 59.4578C64.116 59.9583 63.7907 60.3587 63.14 60.659C62.4894 60.9593 61.7636 61.1095 60.9628 61.1095C60.3622 61.1095 59.7867 60.4088 59.2361 59.0074C58.7356 57.5559 58.4854 55.3788 58.4854 52.4759C58.5354 46.8202 58.6105 39.9884 58.7106 31.9804C58.8607 23.9723 58.9859 17.9413 59.086 13.8873C59.136 12.4358 59.3863 11.0845 59.8367 9.8332C60.3372 8.58195 61.1881 7.95632 62.3893 7.95632C62.7897 7.95632 63.0399 8.18155 63.14 8.632C63.2902 9.0324 63.3652 9.8332 63.3652 11.0344C63.3652 11.0845 63.3402 11.2596 63.2902 11.5599C63.2902 11.8102 63.2902 12.2857 63.2902 12.9864C62.3893 26.1495 61.9388 38.9874 61.9388 51.4999C61.9388 53.1015 62.2892 54.8032 62.9899 56.605C63.7406 58.4068 64.116 59.3577 64.116 59.4578Z" fill="#54995C"/>
<path d="M100.875 42.3407C101.225 42.3407 101.4 42.7161 101.4 43.4668C101.4 44.3677 100.725 46.3447 99.3734 49.3978C98.0721 52.4508 96.0701 55.2787 93.3674 57.8813C90.7148 60.4839 87.4365 61.7852 83.5326 61.7852C80.3294 61.7852 77.6517 60.7842 75.4996 58.7822C73.3474 56.7802 72.2713 53.7021 72.2713 49.5479C72.2713 45.644 73.1722 41.7902 74.974 37.9864C76.7758 34.1325 79.1282 31.0044 82.0311 28.602C84.934 26.1495 87.937 24.9233 91.0401 24.9233C92.892 24.9233 94.4435 25.3487 95.6948 26.1996C96.9961 27.0004 97.6467 28.1765 97.6467 29.7281C97.6467 31.4799 96.6457 33.1816 94.6437 34.8332C92.6918 36.4849 90.1392 37.9363 86.986 39.1876C83.8329 40.4388 80.5796 41.3397 77.2263 41.8903C76.6257 44.1926 76.3254 46.4448 76.3254 48.647C76.3254 51.5499 77.0011 53.8022 78.3524 55.4038C79.7538 57.0054 81.7308 57.8062 84.2833 57.8062C88.1372 57.8062 91.2653 56.4298 93.6677 53.6771C96.0701 50.9243 98.0721 47.8212 99.6737 44.3677C99.7738 44.1675 99.949 43.7922 100.199 43.2416C100.45 42.641 100.675 42.3407 100.875 42.3407ZM94.2683 30.5539C94.2683 29.7531 93.8429 29.1275 92.9921 28.677C92.1913 28.2266 91.2403 28.0014 90.1392 28.0014C88.2373 28.0014 86.4105 28.627 84.6587 29.8782C82.907 31.1295 81.4305 32.631 80.2293 34.3828C79.0781 36.1345 78.3274 37.6861 77.977 39.0374C80.2793 38.7872 82.7068 38.1365 85.2593 37.0855C87.8119 36.0344 89.939 34.8833 91.6407 33.632C93.3925 32.3808 94.2683 31.3547 94.2683 30.5539Z" fill="#54995C"/>
<path d="M133.384 53.5269C133.384 54.1776 133.159 55.1535 132.709 56.4548C132.258 57.7561 131.733 58.9323 131.132 59.9834C130.531 60.9844 129.956 61.4849 129.405 61.4849C128.404 61.4849 127.028 60.2586 125.276 57.8062C123.574 55.3037 121.422 51.9253 118.82 47.671L117.919 46.1695C116.918 47.9713 116.092 49.4979 115.441 50.7491C114.841 51.9503 114.24 53.3017 113.639 54.8032C112.638 57.2056 112.138 58.632 112.138 59.0825C112.138 59.7832 112.488 60.1335 113.189 60.1335C113.339 60.1335 113.589 60.0084 113.94 59.7581C114.29 59.5079 114.54 59.3828 114.691 59.3828C114.941 59.3828 115.166 59.4578 115.366 59.608C115.566 59.7581 115.667 59.9333 115.667 60.1335C115.667 60.4338 115.291 60.9343 114.54 61.635C113.79 62.3357 112.939 62.9613 111.988 63.5119C111.087 64.0624 110.361 64.3377 109.811 64.3377C109.41 64.3377 109.06 63.9874 108.76 63.2867C108.459 62.636 108.309 61.9353 108.309 61.1846C108.309 59.8332 108.86 57.9563 109.961 55.5539C111.112 53.1015 112.814 49.7231 115.066 45.4188L116.267 43.2416C115.266 41.0895 113.915 38.3868 112.213 35.1335C110.561 31.8302 109.085 29.1275 107.784 27.0254C107.033 25.7241 106.658 24.4728 106.658 23.2716C106.658 22.7711 106.708 22.4208 106.808 22.2206C106.958 22.0204 107.158 21.9203 107.408 21.9203C107.859 21.9203 108.334 22.1705 108.835 22.671C109.335 23.1215 109.936 23.9473 110.636 25.1485C112.889 28.7521 115.416 33.582 118.219 39.638C118.419 39.2877 118.995 38.2867 119.946 36.635C121.497 33.8322 123.024 31.2546 124.525 28.9023C125.576 27.4008 126.377 26.3998 126.928 25.8993C127.528 25.3988 128.354 25.1485 129.405 25.1485C130.857 25.1485 131.582 25.5489 131.582 26.3497C131.582 26.5499 131.507 26.7251 131.357 26.8752C131.207 26.9753 130.857 27.1755 130.306 27.4758C129.806 27.7261 129.28 28.1265 128.73 28.677C127.879 29.5279 126.552 31.3547 124.751 34.1575C122.949 36.9103 121.247 39.7631 119.646 42.7161C120.747 44.8182 122.023 46.9453 123.474 49.0975C124.976 51.1996 126.302 52.9513 127.453 54.3527C128.655 55.7041 129.405 56.3798 129.706 56.3798C130.406 56.3798 130.982 55.7291 131.432 54.4278C131.532 54.0775 131.658 53.7021 131.808 53.3017C132.008 52.9013 132.233 52.7011 132.483 52.7011C133.084 52.7011 133.384 52.9764 133.384 53.5269Z" fill="#54995C"/>
<path d="M183.665 18.1665C183.665 21.7701 183.515 25.624 183.215 29.7281C182.915 33.8322 182.589 37.4608 182.239 40.614C181.989 43.3167 181.513 46.2947 180.813 49.5479C180.112 52.8012 179.261 55.604 178.26 57.9563C177.259 60.2586 176.233 61.4098 175.182 61.4098C174.531 61.4098 173.78 60.2837 172.93 58.0314C172.079 55.7792 170.978 52.4759 169.626 48.1215L168.35 43.9173C167.449 41.0144 166.448 38.0865 165.347 35.1335C164.246 32.1305 163.395 30.0034 162.794 28.7521L159.566 39.7882C156.613 49.8983 154.461 56.8302 153.11 60.584C153.06 60.6841 152.91 61.0344 152.659 61.635C152.459 62.2857 152.084 62.7611 151.533 63.0614C150.983 63.4118 150.257 63.587 149.356 63.587C149.156 63.587 148.73 62.2857 148.08 59.6831C147.479 57.0805 146.854 54.2026 146.203 51.0494C144.551 43.8923 143.675 40.1135 143.575 39.7131C142.374 34.8082 141.373 31.1295 140.572 28.677C139.822 26.2246 139.146 24.7481 138.545 24.2476C137.694 23.597 137.269 22.8963 137.269 22.1455C137.269 21.7952 137.519 21.4198 138.02 21.0194C138.57 20.5689 139.196 20.3437 139.897 20.3437C140.497 20.3437 140.973 20.3938 141.323 20.4939C141.673 20.5439 141.949 20.7441 142.149 21.0945C142.85 22.2456 144.201 27.1005 146.203 35.659C146.403 36.3097 146.653 37.2857 146.954 38.587C148.005 42.9413 148.881 46.6951 149.581 49.8482C149.982 51.4498 150.307 52.9013 150.557 54.2026C150.858 55.4538 151.108 56.4048 151.308 57.0554C151.358 56.605 151.859 54.8532 152.81 51.8002C154.461 46.6951 155.737 42.3657 156.638 38.8122C157.589 35.2086 158.465 32.2306 159.266 29.8782C160.067 27.4758 160.692 25.9743 161.143 25.3737C161.443 25.0234 161.844 24.7231 162.344 24.4728C162.895 24.1725 163.42 24.0224 163.921 24.0224C164.271 24.0224 164.546 24.1475 164.746 24.3978C164.947 24.598 165.122 24.8732 165.272 25.2236C165.422 25.5739 165.572 25.8742 165.722 26.1245C166.223 27.1255 167.024 29.2276 168.125 32.4308C169.276 35.634 170.302 38.7872 171.203 41.8903L172.254 45.3437C173.856 50.8993 175.032 54.603 175.782 56.4548C177.534 52.9513 178.735 47.0955 179.386 38.8873C179.736 35.7842 179.912 31.4048 179.912 25.7491L179.837 18.1665C179.837 17.5159 179.912 17.0654 180.062 16.8152C180.212 16.5149 180.562 16.3647 181.113 16.3647C181.713 16.3647 182.289 16.5649 182.84 16.9653C183.39 17.3157 183.665 17.7161 183.665 18.1665Z" fill="#54995C"/>
<path d="M225.827 56.6801C225.877 57.0304 226.078 57.4058 226.428 57.8062C226.778 58.1565 226.954 58.4568 226.954 58.7071C226.954 59.3077 226.703 60.0084 226.203 60.8092C225.702 61.5599 225.202 61.9353 224.701 61.9353C223.85 61.9353 223.2 61.4098 222.749 60.3587C222.299 59.3077 222.074 58.0815 222.074 56.6801C222.074 55.4789 222.149 51.8753 222.299 45.8692L222.374 43.0164C222.374 41.8652 222.074 41.0394 221.473 40.5389C219.221 44.3427 217.119 47.646 215.167 50.4488C213.215 53.2516 210.737 55.9043 207.734 58.4068C204.731 60.8592 201.578 62.0855 198.275 62.0855C196.673 62.0855 195.422 61.585 194.521 60.584C193.67 59.583 193.245 58.2817 193.245 56.6801C193.245 54.6781 194.146 51.9503 195.948 48.4969C197.749 44.9934 200.052 41.4648 202.854 37.9113C205.657 34.3077 208.46 31.3547 211.263 29.0524C213.115 27.5509 214.591 26.5499 215.692 26.0494C216.793 25.4989 217.769 25.2236 218.62 25.2236C219.421 25.2236 220.247 25.4738 221.098 25.9743C221.949 26.4748 222.674 27.1755 223.275 28.0764C223.875 28.9773 224.176 30.0034 224.176 31.1545C224.176 32.7061 223.75 34.1826 222.899 35.584L224.176 35.2086C224.726 35.2086 225.052 35.8843 225.152 37.2356C225.202 38.0364 225.252 39.663 225.302 42.1155C225.402 44.5679 225.477 46.595 225.527 48.1966C225.577 49.8482 225.627 51.4498 225.677 53.0014C225.727 54.5529 225.777 55.7792 225.827 56.6801ZM199.326 58.0314C202.029 58.0314 204.631 57.0304 207.134 55.0284C209.636 53.0264 211.863 50.649 213.815 47.8963C215.817 45.0935 218.02 41.665 220.422 37.611C221.023 36.1095 221.323 34.4829 221.323 32.7311C221.323 31.6801 220.998 30.7792 220.347 30.0284C219.746 29.2276 218.92 28.8272 217.869 28.8272C216.618 28.8272 215.017 29.678 213.065 31.3798C210.812 33.2817 208.435 35.8342 205.932 39.0374C203.43 42.1906 201.353 45.3187 199.701 48.4218C198.05 51.5249 197.224 53.9774 197.224 55.7792C197.224 57.2807 197.924 58.0314 199.326 58.0314Z" fill="#54995C"/>
<path d="M243.458 59.4578C243.458 59.9583 243.132 60.3587 242.482 60.659C241.831 60.9593 241.105 61.1095 240.304 61.1095C239.704 61.1095 239.128 60.4088 238.578 59.0074C238.077 57.5559 237.827 55.3788 237.827 52.4759C237.877 46.8202 237.952 39.9884 238.052 31.9804C238.202 23.9723 238.327 17.9413 238.428 13.8873C238.478 12.4358 238.728 11.0845 239.178 9.8332C239.679 8.58195 240.53 7.95632 241.731 7.95632C242.131 7.95632 242.381 8.18155 242.482 8.632C242.632 9.0324 242.707 9.8332 242.707 11.0344C242.707 11.0845 242.682 11.2596 242.632 11.5599C242.632 11.8102 242.632 12.2857 242.632 12.9864C241.731 26.1495 241.28 38.9874 241.28 51.4999C241.28 53.1015 241.631 54.8032 242.331 56.605C243.082 58.4068 243.458 59.3577 243.458 59.4578Z" fill="#54995C"/>
<path fill-rule="evenodd" clip-rule="evenodd" d="M140.069 91.3877C154.521 93.6256 169.278 94.4888 183.423 96.6785C184.516 96.8477 183.077 96.2019 185.631 97.1531C188.185 98.1042 148.654 99.0979 141.251 98.1004C133.228 97.0188 140.069 93.2833 140.069 91.3877Z" fill="#709E75" stroke="#709E75" stroke-width="0.566" stroke-miterlimit="22.9256"/>
<path d="M109.371 79.1565C108.942 79.1565 108.536 79.1157 108.153 79.0341C107.769 78.9525 107.41 78.8301 107.075 78.6668C106.745 78.5036 106.435 78.2996 106.145 78.0547L106.922 77.0999C107.261 77.3937 107.634 77.614 108.042 77.7609C108.45 77.9078 108.893 77.9813 109.371 77.9813C110.015 77.9813 110.515 77.863 110.87 77.6263C111.225 77.3855 111.403 77.0468 111.403 76.6102V76.6041C111.403 76.294 111.321 76.0491 111.158 75.8696C110.999 75.686 110.791 75.5513 110.534 75.4656C110.281 75.3758 109.952 75.2942 109.548 75.2208C109.536 75.2167 109.522 75.2146 109.505 75.2146C109.493 75.2146 109.481 75.2126 109.469 75.2085L109.377 75.1902C108.781 75.0881 108.295 74.9739 107.92 74.8474C107.549 74.7168 107.23 74.4822 106.965 74.1435C106.7 73.8007 106.567 73.3151 106.567 72.6867V72.6806C106.567 72.1297 106.69 71.6604 106.934 71.2728C107.183 70.881 107.545 70.5831 108.018 70.3791C108.491 70.1751 109.06 70.0731 109.726 70.0731C110.044 70.0731 110.356 70.1078 110.662 70.1771C110.972 70.2465 111.276 70.3506 111.574 70.4893C111.876 70.624 112.172 70.7953 112.462 71.0034L111.752 71.995C111.413 71.7461 111.074 71.5605 110.736 71.438C110.401 71.3115 110.064 71.2483 109.726 71.2483C109.118 71.2483 108.644 71.3707 108.306 71.6155C107.971 71.8563 107.804 72.1991 107.804 72.6439V72.65C107.804 72.956 107.889 73.1968 108.061 73.3722C108.236 73.5477 108.452 73.6783 108.71 73.764C108.971 73.8456 109.332 73.9313 109.793 74.0211C109.809 74.0251 109.824 74.0292 109.836 74.0333C109.852 74.0333 109.868 74.0353 109.885 74.0394C109.905 74.0435 109.928 74.0476 109.952 74.0517C109.977 74.0557 109.999 74.0598 110.019 74.0639C110.558 74.1741 111.007 74.3047 111.366 74.4556C111.729 74.6066 112.031 74.8515 112.272 75.1902C112.517 75.5248 112.639 75.9838 112.639 76.5674V76.5796C112.639 77.1223 112.511 77.5875 112.254 77.9752C111.996 78.3588 111.623 78.6526 111.133 78.8566C110.648 79.0565 110.06 79.1565 109.371 79.1565ZM115.951 79.0953C115.436 79.0953 115.059 78.9545 114.818 78.673C114.582 78.3873 114.463 77.967 114.463 77.412V70.8627H115.712V77.4243C115.712 77.5794 115.742 77.6997 115.804 77.7854C115.865 77.867 115.955 77.9078 116.073 77.9078H116.673V79.0953H115.951ZM113.808 72.7112H116.673V73.8374H113.808V72.7112ZM120.988 79.1565C120.4 79.1565 119.899 79.0463 119.482 78.826C119.066 78.6056 118.748 78.2833 118.527 77.8589C118.311 77.4304 118.203 76.9142 118.203 76.3103V75.5941C118.203 74.9657 118.307 74.4291 118.515 73.9843C118.727 73.5395 119.033 73.2009 119.433 72.9683C119.833 72.7357 120.315 72.6194 120.878 72.6194C121.408 72.6194 121.861 72.752 122.237 73.0172C122.612 73.2825 122.898 73.666 123.094 74.168C123.294 74.6699 123.394 75.2718 123.394 75.9736V76.3899H119.109V75.386H122.206C122.169 74.8678 122.035 74.4658 121.802 74.1802C121.574 73.8905 121.266 73.7456 120.878 73.7456C120.405 73.7456 120.037 73.9007 119.776 74.2108C119.519 74.5209 119.391 74.9596 119.391 75.5268V76.3348C119.391 76.8612 119.529 77.2651 119.807 77.5467C120.084 77.8283 120.478 77.9691 120.988 77.9691C121.241 77.9691 121.492 77.918 121.741 77.816C121.99 77.714 122.212 77.5712 122.408 77.3876L123.228 78.2078C122.914 78.5097 122.561 78.7444 122.169 78.9117C121.778 79.0749 121.384 79.1565 120.988 79.1565ZM125.107 72.7112H126.356V81.6477H125.107V72.7112ZM127.954 79.1565C127.558 79.1565 127.213 79.0627 126.919 78.8749C126.625 78.6832 126.409 78.4138 126.27 78.067L126.356 76.7387C126.356 77.0121 126.405 77.2447 126.503 77.4365C126.601 77.6283 126.742 77.7752 126.925 77.8772C127.113 77.9793 127.34 78.0303 127.605 78.0303C128.017 78.0303 128.335 77.9058 128.56 77.6569C128.788 77.4039 128.902 77.0489 128.902 76.5918V75.2146C128.902 74.7495 128.788 74.3883 128.56 74.1312C128.335 73.8742 128.017 73.7456 127.605 73.7456C127.34 73.7456 127.113 73.7946 126.925 73.8925C126.742 73.9905 126.601 74.1353 126.503 74.3271C126.405 74.5148 126.356 74.7413 126.356 75.0065L126.228 73.7823C126.419 73.411 126.67 73.1254 126.98 72.9254C127.291 72.7214 127.635 72.6194 128.015 72.6194C128.464 72.6194 128.847 72.7214 129.166 72.9254C129.488 73.1254 129.733 73.4192 129.9 73.8068C130.067 74.1945 130.151 74.6617 130.151 75.2085V76.5918C130.151 77.1305 130.065 77.5916 129.894 77.9752C129.723 78.3588 129.472 78.6526 129.141 78.8566C128.811 79.0565 128.415 79.1565 127.954 79.1565ZM138.414 79.1565C137.757 79.1565 137.194 79.028 136.725 78.7709C136.26 78.5097 135.905 78.1323 135.66 77.6385C135.415 77.1407 135.293 76.5429 135.293 75.8451V70.1649H136.541V75.8879C136.541 76.5368 136.705 77.0387 137.031 77.3937C137.357 77.7487 137.819 77.9262 138.414 77.9262C139.014 77.9262 139.477 77.7487 139.804 77.3937C140.134 77.0387 140.3 76.5368 140.3 75.8879V70.1649H141.548V75.8451C141.548 76.5429 141.426 77.1407 141.181 77.6385C140.936 78.1323 140.579 78.5097 140.11 78.7709C139.641 79.028 139.075 79.1565 138.414 79.1565ZM143.507 72.7112H144.756V81.6477H143.507V72.7112ZM146.353 79.1565C145.957 79.1565 145.613 79.0627 145.319 78.8749C145.025 78.6832 144.809 78.4138 144.67 78.067L144.756 76.7387C144.756 77.0121 144.805 77.2447 144.903 77.4365C145 77.6283 145.141 77.7752 145.325 77.8772C145.513 77.9793 145.739 78.0303 146.004 78.0303C146.416 78.0303 146.735 77.9058 146.959 77.6569C147.188 77.4039 147.302 77.0489 147.302 76.5918V75.2146C147.302 74.7495 147.188 74.3883 146.959 74.1312C146.735 73.8742 146.416 73.7456 146.004 73.7456C145.739 73.7456 145.513 73.7946 145.325 73.8925C145.141 73.9905 145 74.1353 144.903 74.3271C144.805 74.5148 144.756 74.7413 144.756 75.0065L144.627 73.7823C144.819 73.411 145.07 73.1254 145.38 72.9254C145.69 72.7214 146.035 72.6194 146.414 72.6194C146.863 72.6194 147.247 72.7214 147.565 72.9254C147.887 73.1254 148.132 73.4192 148.3 73.8068C148.467 74.1945 148.551 74.6617 148.551 75.2085V76.5918C148.551 77.1305 148.465 77.5916 148.294 77.9752C148.122 78.3588 147.871 78.6526 147.541 78.8566C147.21 79.0565 146.814 79.1565 146.353 79.1565ZM156.489 75.4472V79.0647H155.241V75.4472L152.529 70.1649H153.919L155.865 74.1802L157.812 70.1649H159.201L156.489 75.4472ZM161.882 79.1565C161.331 79.1565 160.86 79.0484 160.468 78.8321C160.076 78.6158 159.776 78.3016 159.568 77.8895C159.364 77.4733 159.262 76.9734 159.262 76.3899V75.3554C159.262 74.7801 159.364 74.2883 159.568 73.8803C159.776 73.4681 160.076 73.156 160.468 72.9438C160.86 72.7275 161.331 72.6194 161.882 72.6194C162.433 72.6194 162.904 72.7275 163.296 72.9438C163.688 73.156 163.985 73.4681 164.19 73.8803C164.398 74.2883 164.502 74.7801 164.502 75.3554V76.4082C164.502 76.9877 164.398 77.4835 164.19 77.8956C163.985 78.3037 163.688 78.6158 163.296 78.8321C162.904 79.0484 162.433 79.1565 161.882 79.1565ZM161.882 77.9691C162.319 77.9691 162.655 77.8324 162.892 77.559C163.133 77.2856 163.253 76.902 163.253 76.4082V75.3554C163.253 74.8617 163.133 74.4801 162.892 74.2108C162.655 73.9415 162.319 73.8068 161.882 73.8068C161.445 73.8068 161.107 73.9415 160.866 74.2108C160.629 74.4801 160.511 74.8617 160.511 75.3554V76.4082C160.511 76.902 160.629 77.2856 160.866 77.559C161.107 77.8324 161.445 77.9691 161.882 77.9691ZM169.949 72.7112H171.192V79.0647H169.949V72.7112ZM167.366 76.5735C167.366 77.0183 167.479 77.3631 167.703 77.6079C167.931 77.8487 168.252 77.9691 168.664 77.9691C169.072 77.9691 169.388 77.8609 169.613 77.6446C169.837 77.4284 169.949 77.1203 169.949 76.7204L170.035 78.0486C169.904 78.3628 169.692 78.626 169.398 78.8382C169.105 79.0504 168.743 79.1565 168.315 79.1565C167.613 79.1565 167.07 78.9321 166.687 78.4832C166.307 78.0303 166.118 77.3937 166.118 76.5735V72.7112H167.366V76.5735ZM173.095 72.7112H174.344V79.0647H173.095V72.7112ZM176.591 74.2169C176.48 74.0823 176.342 73.9803 176.174 73.9109C176.007 73.8415 175.813 73.8068 175.593 73.8068C175.197 73.8068 174.889 73.917 174.669 74.1374C174.452 74.3536 174.344 74.6556 174.344 75.0433L174.216 73.8191C174.411 73.4396 174.664 73.1458 174.975 72.9377C175.285 72.7255 175.627 72.6194 176.003 72.6194C176.293 72.6194 176.554 72.6622 176.786 72.7479C177.023 72.8295 177.229 72.9519 177.405 73.1152L176.591 74.2169ZM188.018 74.272V75.8267C188.018 76.4878 187.89 77.0713 187.633 77.5773C187.376 78.0792 187.01 78.4689 186.537 78.7464C186.068 79.0198 185.523 79.1565 184.903 79.1565C184.274 79.1565 183.721 79.028 183.244 78.7709C182.771 78.5097 182.403 78.1425 182.142 77.6691C181.881 77.1958 181.75 76.6469 181.75 76.0226V73.3967C181.75 72.7357 181.879 72.1542 182.136 71.6523C182.393 71.1504 182.756 70.7627 183.226 70.4893C183.699 70.2118 184.246 70.0731 184.866 70.0731C185.376 70.0731 185.845 70.1832 186.274 70.4036C186.706 70.6199 187.067 70.928 187.357 71.3279C187.647 71.7278 187.843 72.1909 187.945 72.7173H186.592C186.519 72.4194 186.394 72.1644 186.219 71.9522C186.043 71.7359 185.837 71.5727 185.601 71.4625C185.364 71.3483 185.119 71.2911 184.866 71.2911C184.499 71.2911 184.176 71.3789 183.899 71.5543C183.621 71.7298 183.407 71.9767 183.256 72.295C183.105 72.6092 183.03 72.9764 183.03 73.3967V76.0226C183.03 76.4062 183.107 76.7428 183.262 77.0326C183.417 77.3182 183.636 77.5406 183.917 77.6997C184.203 77.8589 184.531 77.9384 184.903 77.9384C185.27 77.9384 185.592 77.8568 185.87 77.6936C186.147 77.5263 186.362 77.2856 186.513 76.9713C186.663 76.6571 186.739 76.2838 186.739 75.8512V75.4656H184.933V74.272H188.018ZM193.503 75.0371C193.503 74.6209 193.39 74.2985 193.166 74.07C192.946 73.8374 192.631 73.7211 192.223 73.7211C191.97 73.7211 191.721 73.7599 191.477 73.8374C191.236 73.915 191.022 74.0231 190.834 74.1618L189.922 73.5375C190.163 73.2478 190.479 73.0234 190.871 72.8642C191.266 72.701 191.705 72.6194 192.187 72.6194C192.713 72.6194 193.164 72.7132 193.539 72.9009C193.915 73.0846 194.2 73.3539 194.396 73.7089C194.592 74.0598 194.69 74.4842 194.69 74.982V79.0647H193.503V75.0371ZM191.948 79.1565C191.164 79.1565 190.579 78.9953 190.191 78.673C189.804 78.3465 189.61 77.8528 189.61 77.1917C189.61 76.5633 189.787 76.092 190.142 75.7778C190.497 75.4636 191.034 75.3065 191.752 75.3065H193.558L193.643 76.3103H191.758C191.432 76.3103 191.187 76.3837 191.024 76.5306C190.864 76.6735 190.785 76.8938 190.785 77.1917C190.785 77.5141 190.891 77.7528 191.103 77.9078C191.319 78.0629 191.646 78.1404 192.083 78.1404C192.56 78.1404 192.915 78.0894 193.148 77.9874C193.384 77.8854 193.503 77.7263 193.503 77.51L193.631 78.4036C193.521 78.575 193.384 78.7158 193.221 78.826C193.062 78.9362 192.876 79.0178 192.664 79.0708C192.452 79.1279 192.213 79.1565 191.948 79.1565ZM204.177 75.2146C204.177 74.7658 204.061 74.4189 203.829 74.1741C203.596 73.9292 203.27 73.8068 202.849 73.8068C202.462 73.8068 202.162 73.9252 201.949 74.1618C201.737 74.3985 201.631 74.7331 201.631 75.1657L201.38 73.9415C201.58 73.5212 201.843 73.1968 202.17 72.9683C202.5 72.7357 202.864 72.6194 203.259 72.6194C203.716 72.6194 204.106 72.7214 204.428 72.9254C204.755 73.1254 205.002 73.4192 205.169 73.8068C205.34 74.1945 205.426 74.6617 205.426 75.2085V79.0647H204.177V75.2146ZM196.588 72.7112H197.836V79.0647H196.588V72.7112ZM200.383 75.2146C200.383 74.7658 200.272 74.4189 200.052 74.1741C199.832 73.9292 199.519 73.8068 199.115 73.8068C198.707 73.8068 198.391 73.915 198.167 74.1312C197.946 74.3475 197.836 74.6515 197.836 75.0433L197.708 73.8191C197.904 73.4355 198.159 73.1396 198.473 72.9315C198.791 72.7234 199.142 72.6194 199.526 72.6194C199.97 72.6194 200.35 72.7214 200.664 72.9254C200.978 73.1254 201.217 73.4192 201.38 73.8068C201.548 74.1945 201.631 74.6617 201.631 75.2085V79.0647H200.383V75.2146ZM209.925 79.1565C209.337 79.1565 208.835 79.0463 208.419 78.826C208.003 78.6056 207.685 78.2833 207.464 77.8589C207.248 77.4304 207.14 76.9142 207.14 76.3103V75.5941C207.14 74.9657 207.244 74.4291 207.452 73.9843C207.664 73.5395 207.97 73.2009 208.37 72.9683C208.77 72.7357 209.252 72.6194 209.815 72.6194C210.345 72.6194 210.798 72.752 211.174 73.0172C211.549 73.2825 211.835 73.666 212.031 74.168C212.231 74.6699 212.331 75.2718 212.331 75.9736V76.3899H208.046V75.386H211.143C211.106 74.8678 210.972 74.4658 210.739 74.1802C210.511 73.8905 210.203 73.7456 209.815 73.7456C209.341 73.7456 208.974 73.9007 208.713 74.2108C208.456 74.5209 208.327 74.9596 208.327 75.5268V76.3348C208.327 76.8612 208.466 77.2651 208.744 77.5467C209.021 77.8283 209.415 77.9691 209.925 77.9691C210.178 77.9691 210.429 77.918 210.678 77.816C210.927 77.714 211.149 77.5712 211.345 77.3876L212.165 78.2078C211.851 78.5097 211.498 78.7444 211.106 78.9117C210.715 79.0749 210.321 79.1565 209.925 79.1565Z" fill="#313832"/>
</g>
<defs>
<clipPath id="clip0_249_302">
<rect width="330" height="104" fill="white"/>
</clipPath>
</defs>
</svg>
